<svg xmlns="http://www.w3.org/2000/svg" xmlns:xlink="http://www.w3.org/1999/xlink" id="Layer_1" width="80" height="80" x="0" y="0" enable-background="new 0 0 80 80" version="1.1" viewBox="0 0 80 80" xml:space="preserve"><linearGradient id="SVGID_1_" x1="39.999" x2="39.999" y1="63.999" y2="16.001" gradientUnits="userSpaceOnUse"><stop offset="0" style="stop-color:#fff"/><stop offset=".138" style="stop-color:#e2e2e2"/><stop offset=".439" style="stop-color:#989898"/><stop offset=".876" style="stop-color:#222"/><stop offset="1" style="stop-color:#000"/></linearGradient><path fill="url(#SVGID_1_)" d="M63.999,60.999c0,1.658-1.343,3-3,3H19c-1.656,0-3-1.342-3-3V19c0-1.657,1.344-3,3-3h41.999	c1.657,0,3,1.343,3,3V60.999z"/><g><linearGradient id="SVGID_2_" x1="39.999" x2="39.999" y1="67.999" y2="12.001" gradientUnits="userSpaceOnUse"><stop offset="0" style="stop-color:#a1a1a1"/><stop offset=".262" style="stop-color:#989798"/><stop offset=".71" style="stop-color:#7e7b7e"/><stop offset="1" style="stop-color:#6b666b"/></linearGradient><path fill="url(#SVGID_2_)" d="M60.999,12H19c-3.86,0-7,3.14-7,7v41.999c0,3.859,3.14,7,7,7h41.999c3.859,0,7-3.141,7-7V19 C67.999,15.141,64.858,12,60.999,12L60.999,12z"/><path fill="#919191" d="M60.999,16c1.654,0,3,1.346,3,3v41.999c0,1.654-1.346,3-3,3H19c-1.654,0-3-1.346-3-3V19 c0-1.654,1.346-3,3-3H60.999 M60.999,12H19c-3.86,0-7,3.14-7,7v41.999c0,3.859,3.14,7,7,7h41.999c3.859,0,7-3.141,7-7V19 C67.999,15.141,64.858,12,60.999,12L60.999,12z"/></g></svg>