<svg xmlns="http://www.w3.org/2000/svg" xmlns:xlink="http://www.w3.org/1999/xlink" id="Layer_1" width="80" height="80" x="0" y="0" enable-background="new 0 0 80 80" version="1.1" viewBox="0 0 80 80" xml:space="preserve"><g><linearGradient id="SVGID_1_" x1="49.797" x2="30.674" y1="58.48" y2="19.272" gradientUnits="userSpaceOnUse"><stop offset=".109" style="stop-color:#fff4ff"/><stop offset=".162" style="stop-color:#fff3e2"/><stop offset=".277" style="stop-color:#fff098"/><stop offset=".444" style="stop-color:#ffea22"/><stop offset=".491" style="stop-color:#ffe900"/><stop offset=".903" style="stop-color:#e69f11"/></linearGradient><path fill="url(#SVGID_1_)" d="M40.235,60.688c-12.028,0-21.813-9.785-21.813-21.813s9.785-21.813,21.813-21.813 c12.027,0,21.813,9.785,21.813,21.813S52.263,60.688,40.235,60.688L40.235,60.688z"/><path fill="#FFE921" d="M40.235,19.063c10.925,0,19.813,8.888,19.813,19.813S51.16,58.688,40.235,58.688S20.422,49.8,20.422,38.875 S29.311,19.063,40.235,19.063 M40.235,15.063c-13.152,0-23.813,10.661-23.813,23.813s10.661,23.813,23.813,23.813 c13.15,0,23.813-10.661,23.813-23.813S53.386,15.063,40.235,15.063L40.235,15.063z"/></g><g><path fill="#E69F11" d="M47.588,50.833l-13.652-0.071v-5.447h3.775c0,0,0.544-8.207,0.581-12.419 c-0.98,0.944-1.669,1.38-3.375,1.961l-2.216-4.975c2.941-0.98,4.357-1.78,5.882-3.341l5.955,0.581l-0.29,18.337l3.521-0.036 L47.588,50.833z"/></g><path fill="#FFF" d="M29.728,22.166c0,1.968-1.596,3.563-3.563,3.563c-1.967,0-3.562-1.596-3.562-3.563s1.595-3.563,3.562-3.563	C28.132,18.603,29.728,20.198,29.728,22.166"/></svg>