<svg xmlns="http://www.w3.org/2000/svg" xmlns:xlink="http://www.w3.org/1999/xlink" id="Layer_1" width="80" height="80" x="0" y="0" enable-background="new 0 0 80 80" version="1.1" viewBox="0 0 80 80" xml:space="preserve"><g><polygon fill="#929497" points="40 11.471 49.271 30.256 70 33.263 54.997 47.887 58.542 68.529 40 58.787 21.458 68.529 25.002 47.887 10 33.263 30.729 30.256" opacity=".5"/><g opacity=".5"><path fill="#A6A8AB" d="M40,18.25l6.58,13.334l0.698,1.415l1.562,0.226l14.712,2.134L52.903,45.738l-1.13,1.102l0.267,1.555 l2.517,14.652l-13.161-6.915L40,55.398l-1.396,0.733l-13.161,6.915l2.515-14.652l0.267-1.555l-1.129-1.102L16.448,35.359 l14.711-2.134l1.562-0.226l0.698-1.415L40,18.25 M40,11.471l-9.271,18.786L10,33.263l15.002,14.624l-3.543,20.643L40,58.787 l18.542,9.742l-3.545-20.643L70,33.263l-20.729-3.007L40,11.471L40,11.471z"/></g></g></svg>